<svg width="16" height="16" fill="none" xmlns="http://www.w3.org/2000/svg"><mask id="a" style="mask-type:alpha" maskUnits="userSpaceOnUse" x="2" y="2" width="12" height="12"><circle cx="8" cy="8" r="6" fill="#C4C4C4"/></mask><g mask="url(#a)"><path d="M14 2H2v12h12V2Z" fill="#F5222D"/></g><path fill-rule="evenodd" clip-rule="evenodd" d="M6.874 6.168a2.367 2.367 0 0 1 1.673-.694c.5-.003.987.154 1.39.45a2.841 2.841 0 1 0 0 3.834c-.403.296-.89.454-1.39.45a2.367 2.367 0 0 1-1.673-4.04Zm3.993 1.674c0 .523-.43.947-.959.947a.953.953 0 0 1-.959-.947c0-.523.43-.947.96-.947.529 0 .958.424.958.947Z" fill="#F1F8FE"/></svg>