<svg width="16" height="16" fill="none" xmlns="http://www.w3.org/2000/svg"><mask id="a" style="mask-type:alpha" maskUnits="userSpaceOnUse" x="2" y="2" width="12" height="12"><circle cx="8" cy="8" r="6" fill="#C4C4C4"/></mask><g mask="url(#a)"><path d="M14 2H2v12h12V2Z" fill="#F1F8FE"/><path d="M14 1H2v2h12V1Zm0 4H2v2h12V5Z" fill="#F5222D"/><path d="M9 2H2v5h7V2Z" fill="#2F54EB"/><path d="M14 9H2v2h12V9Zm0 4H2v2h12v-2Z" fill="#F5222D"/><circle cx="7.5" cy="3.5" r=".5" fill="#F1F8FE"/><circle cx="5.5" cy="3.5" r=".5" fill="#F1F8FE"/><circle cx="3.5" cy="3.5" r=".5" fill="#F1F8FE"/><circle cx="7.5" cy="5.5" r=".5" fill="#F1F8FE"/><circle cx="5.5" cy="5.5" r=".5" fill="#F1F8FE"/><circle cx="3.5" cy="5.5" r=".5" fill="#F1F8FE"/></g></svg>